<svg xmlns="http://www.w3.org/2000/svg" viewBox="0 0 272.63 335.82"><defs><style>.cls-1{fill:#fff;}</style></defs><title>Asset 16357</title><g id="Layer_2" data-name="Layer 2"><g id="Hand_icons" data-name="Hand icons"><path class="cls-1" d="M254.56,45.57a18.09,18.09,0,0,0-18.07,18.07V150a4,4,0,0,1-8,0V21.18A21.2,21.2,0,0,0,207.31,0,20.92,20.92,0,0,0,192,6.29a21.42,21.42,0,0,0-5.89,15V150a4,4,0,0,1-8,0V22.86A22.89,22.89,0,0,0,155.27,0C141,0,132.41,12.35,132.41,24.3V150a4,4,0,0,1-8,0v-103a21.2,21.2,0,0,0-21.18-21.18C90,25.88,82.05,37.33,82.05,48.41V204.67h47A64.51,64.51,0,0,1,177.94,227a4,4,0,0,1-6.06,5.23,56.49,56.49,0,0,0-42.8-19.6h-51a3.19,3.19,0,0,1-.54-.06,1.36,1.36,0,0,1-.2,0,3.85,3.85,0,0,1-1-.31l-.2-.11a3.93,3.93,0,0,1-.74-.52l-.1-.07L55.47,192.94a37.66,37.66,0,0,0-52.55.73,9.81,9.81,0,0,0-.3,13.65l75.11,81.49c30.13,33.4,60.74,47,105.68,47,49.19,0,89.22-40.44,89.22-90.14V64.53C272.63,55.34,266.3,45.57,254.56,45.57Z"/></g></g></svg>