<svg xmlns="http://www.w3.org/2000/svg" viewBox="0 0 208.84 225.73"><defs><style>.cls-1{fill:#fff;}</style></defs><title>Asset 15357</title><g id="Layer_2" data-name="Layer 2"><g id="Hand_icons" data-name="Hand icons"><path class="cls-1" d="M158.41,70.19V23.33a23.33,23.33,0,1,0-46.66,0V68.89H152.9A12.45,12.45,0,0,1,158.41,70.19Z"/><path class="cls-1" d="M50.47,68.89V21.56a19.5,19.5,0,0,0-39,0V79.89a49.33,49.33,0,0,1,31.09-11Z"/><path class="cls-1" d="M187.13,117.63a28.72,28.72,0,0,1-24.84-14.37,43.56,43.56,0,0,1-40.35,27.3H92.76a47.93,47.93,0,0,1,23,40.91v13.14a3.51,3.51,0,0,1-7,0V171.47a41,41,0,0,0-40.91-40.91h-.63a3.51,3.51,0,0,1-3.51-3.51h0a3.51,3.51,0,0,1,3.51-3.51h54.75a36.51,36.51,0,0,0,36.47-36.47V81.42a5.52,5.52,0,0,0-5.51-5.51H42.56a42.48,42.48,0,0,0-32.42,15c-.59.7-1.17,1.4-1.71,2.13L7.78,94c-.53.76-1,1.52-1.53,2.31-.16.26-.3.52-.46.78-.49.85-1,1.7-1.39,2.57l-.21.43c-.49,1-.93,2.06-1.34,3.11-.05.14-.11.27-.16.41-.4,1.07-.75,2.15-1.06,3.25l-.12.42c-.3,1.1-.56,2.22-.77,3.34,0,.15-.05.3-.08.44-.2,1.14-.36,2.28-.47,3.43l0,.4c-.1,1.19-.16,2.39-.16,3.6,0,2.89.15,5.74.37,8.58a107.39,107.39,0,0,0,106.89,98.68H120a88.92,88.92,0,0,0,88.82-88.82V107.66A28.67,28.67,0,0,1,187.13,117.63Z"/><path class="cls-1" d="M104.73,23.62a23.62,23.62,0,0,0-47.24,0V68.89h47.24Z"/><path class="cls-1" d="M187.13,34.2a21.73,21.73,0,0,0-21.7,21.71v33a21.71,21.71,0,1,0,43.41,0v-33A21.74,21.74,0,0,0,187.13,34.2Z"/></g></g></svg>