<svg xmlns="http://www.w3.org/2000/svg" viewBox="0 0 204.91 329.37"><defs><style>.cls-1{fill:#fff;}</style></defs><title>Asset 17357</title><g id="Layer_2" data-name="Layer 2"><g id="Hand_icons" data-name="Hand icons"><path class="cls-1" d="M67.31,181.59h35.83V142.28a28.94,28.94,0,0,1,9.08-21L126,23.56A20.34,20.34,0,1,0,85.66,17.9l-19,130.5a3.59,3.59,0,0,1-7.1,0L40.49,17.53A20.34,20.34,0,1,0,.2,23.18c5.26,39.28,9.25,67.3,12.16,87.76,7.37,51.83,8.62,60.66,8.83,97.33A53.28,53.28,0,0,1,67.31,181.59Z"/><path class="cls-1" d="M183.06,225.37a29,29,0,0,1-24.21-13,40.14,40.14,0,0,1-37.56,26.1H106.9a46,46,0,0,1,21.43,38.89v12.56a3.59,3.59,0,1,1-7.17,0V277.32a38.93,38.93,0,0,0-38.9-38.89,3.58,3.58,0,0,1-3.58-3.59h0a3.58,3.58,0,0,1,3.58-3.59h39a32.78,32.78,0,0,0,21.28-7.84,33.27,33.27,0,0,0,7.31-8.83,32.73,32.73,0,0,0,4.29-15.5c0-.24,0-.49,0-.74a9.18,9.18,0,0,0-.15-1.49c0-.11,0-.23,0-.34a9.58,9.58,0,0,0-9.39-7.74H67.31a46.12,46.12,0,0,0-46.07,46.07h0c0,27.43,10.32,52.22,29.06,69.78a92.24,92.24,0,0,0,68.9,24.55c48.06-3.11,85.71-44.8,85.71-94.91V215.38A28.9,28.9,0,0,1,183.06,225.37Z"/><path class="cls-1" d="M183.06,143.4a21.89,21.89,0,0,0-21.86,21.86V196a17.54,17.54,0,0,1,.18,2.3c0,.19,0,.37,0,.55a21.85,21.85,0,0,0,43.55-2.56V165.26A21.88,21.88,0,0,0,183.06,143.4Z"/><path class="cls-1" d="M125.1,121.62c-.32.11-.63.22-.94.35s-.63.25-.94.39l-1,.46c-.28.14-.55.29-.82.44s-.68.4-1,.61-.47.29-.7.45-.69.5-1,.77c-.19.15-.39.29-.58.45a21.83,21.83,0,0,0-7.83,16.74v39.31h34.32a16.65,16.65,0,0,1,9.4,2.9V142.28a21.89,21.89,0,0,0-19.63-21.74,20.56,20.56,0,0,0-2.23-.11c-.71,0-1.4,0-2.09.1l-.82.11c-.4.06-.81.11-1.2.19s-.65.14-1,.22l-1,.25Z"/></g></g></svg>